<?xml version="1.0" encoding="utf-8"?>
<!-- Svg Vector Icons : http://www.onlinewebfonts.com/icon -->
<!DOCTYPE svg PUBLIC "-//W3C//DTD SVG 1.1//EN" "http://www.w3.org/Graphics/SVG/1.1/DTD/svg11.dtd">
<svg version="1.1" xmlns="http://www.w3.org/2000/svg" xmlns:xlink="http://www.w3.org/1999/xlink" x="0px" y="0px" viewBox="0 0 1000 1000" enable-background="new 0 0 1000 1000" xml:space="preserve">
<metadata> Svg Vector Icons : http://www.onlinewebfonts.com/icon </metadata>
<g><rect x="10" y="456.6" width="980" height="530.8"/><g><polygon points="377.5,374.9 295.8,456.6 377.5,456.6 459.2,374.9 "/><polygon points="173.3,374.9 91.7,456.6 173.3,456.6 255,374.9 "/><polygon points="908.3,456.6 990,456.6 990,374.9 "/><polygon points="785.8,374.9 704.2,456.6 785.8,456.6 867.5,374.9 "/><polygon points="581.7,374.9 500,456.6 581.7,456.6 663.3,374.9 "/></g><g><polygon points="634.6,189.1 532.1,135.9 454.2,160.6 556.8,213.8 "/><polygon points="648.8,98.9 751.4,152.1 829.2,127.4 726.7,74.3 "/><polygon points="946,90.4 921.3,12.6 843.5,37.2 "/><polygon points="65,284 65,284 167.5,337.2 167.5,337.2 245.3,312.5 245.3,312.5 142.8,259.3 142.8,259.3 "/><polygon points="337.4,197.6 259.6,222.3 259.6,222.3 362.1,275.5 440,250.8 "/></g><circle cx="50.8" cy="374.9" r="40.8"/><g><polygon points="218.3,363.5 957.5,129.3 945.4,90.3 167,337 "/></g></g>
</svg>